<?xml version="1.0" encoding="UTF-8"?>
<svg id="Ebene_2" xmlns="http://www.w3.org/2000/svg" viewBox="0 0 349.2 349.2">
  <defs>
    <style>
      .cls-1 {
        fill: #f7f9e8;
      }
    </style>
  </defs>
  <g id="Ebene_1-2" data-name="Ebene_1">
    <g>
      <path class="cls-1" d="M189.38,130.1c-1.76-3.24-5.55-4.57-8.91-5.4-.63-.15-.9.81-.27.97,3.17.77,6.79,1.97,8.4,5.07,1.05,2.03,1.25,4.45,1.07,6.69-.05.65.95.64,1,0,.2-2.47-.09-5.13-1.29-7.33ZM189.38,130.1c-1.76-3.24-5.55-4.57-8.91-5.4-.63-.15-.9.81-.27.97,3.17.77,6.79,1.97,8.4,5.07,1.05,2.03,1.25,4.45,1.07,6.69-.05.65.95.64,1,0,.2-2.47-.09-5.13-1.29-7.33ZM189.38,130.1c-1.76-3.24-5.55-4.57-8.91-5.4-.63-.15-.9.81-.27.97,3.17.77,6.79,1.97,8.4,5.07,1.05,2.03,1.25,4.45,1.07,6.69-.05.65.95.64,1,0,.2-2.47-.09-5.13-1.29-7.33ZM189.38,130.1c-1.76-3.24-5.55-4.57-8.91-5.4-.63-.15-.9.81-.27.97,3.17.77,6.79,1.97,8.4,5.07,1.05,2.03,1.25,4.45,1.07,6.69-.05.65.95.64,1,0,.2-2.47-.09-5.13-1.29-7.33ZM189.38,130.1c-1.76-3.24-5.55-4.57-8.91-5.4-.63-.15-.9.81-.27.97,3.17.77,6.79,1.97,8.4,5.07,1.05,2.03,1.25,4.45,1.07,6.69-.05.65.95.64,1,0,.2-2.47-.09-5.13-1.29-7.33ZM189.38,130.1c-1.76-3.24-5.55-4.57-8.91-5.4-.63-.15-.9.81-.27.97,3.17.77,6.79,1.97,8.4,5.07,1.05,2.03,1.25,4.45,1.07,6.69-.05.65.95.64,1,0,.2-2.47-.09-5.13-1.29-7.33ZM189.38,130.1c-1.76-3.24-5.55-4.57-8.91-5.4-.63-.15-.9.81-.27.97,3.17.77,6.79,1.97,8.4,5.07,1.05,2.03,1.25,4.45,1.07,6.69-.05.65.95.64,1,0,.2-2.47-.09-5.13-1.29-7.33ZM233.92,231.81c-.22-.62-.6-1.11-1.13-1.47-.54-.36-1.2-.54-2-.54s-1.57.21-2.28.63c-.71.42-1.3.96-1.78,1.61-.44.6-.74,1.23-.87,1.89h8.21c.12-.79.08-1.5-.15-2.12ZM233.92,231.81c-.22-.62-.6-1.11-1.13-1.47-.54-.36-1.2-.54-2-.54s-1.57.21-2.28.63c-.71.42-1.3.96-1.78,1.61-.44.6-.74,1.23-.87,1.89h8.21c.12-.79.08-1.5-.15-2.12ZM189.38,130.1c-1.76-3.24-5.55-4.57-8.91-5.4-.63-.15-.9.81-.27.97,3.17.77,6.79,1.97,8.4,5.07,1.05,2.03,1.25,4.45,1.07,6.69-.05.65.95.64,1,0,.2-2.47-.09-5.13-1.29-7.33ZM314.33,0H34.87C15.61,0,0,15.62,0,34.88v279.45c0,19.26,15.61,34.87,34.87,34.87h279.46c19.26,0,34.87-15.61,34.87-34.87V34.88c0-19.26-15.61-34.88-34.87-34.88ZM157.59,113.74c2.1-2.29,6.17-2.35,8.59.33,4.13,3.79,8.25,7.57,12.38,11.36.09-8.55.18-17.11.27-25.66,1.47-3.19,3.91-5.32,6.29-5.2,3.09.15,5.9,3.83,5.89,6.34-.03,6.49-.05,12.99-.08,19.48,3.99-6.96,7.98-13.91,11.98-20.87,2.03-1.32,4.66-1.32,6.66,0,1.9,1.25,2.93,3.49,2.67,5.78l-9.78,21.32,15.11-10.03c2.83-2.82,7.35-2.33,9.33.34,1.91,2.58,1.17,6.88-2.14,8.87-5.66,3.68-11.32,7.36-16.97,11.04l22.66-2.16c1.93.67,3.18,2.48,3.11,4.38-.1,2.4-2.27,3.63-2.38,3.69-9.5,2.31-19.01,4.63-28.51,6.95-.83,2.06-1.65,4.12-2.48,6.18-.01,0-.03-.01-.04-.01l-28.79-6.48c.4-1.56.8-3.11,1.2-4.67l-14.97-23.43c-1.9-2.34-1.79-5.61,0-7.55ZM201.88,161.27c-.34,1.55-1.89,2.52-3.44,2.17l-1.1-.25-27.92-6.28-.39-.09c-1.55-.35-2.53-1.89-2.18-3.44.3-1.34,1.49-2.25,2.81-2.25.21,0,.42.03.63.07l.57.13,28.58,6.43.27.06c.75.17,1.39.62,1.8,1.27.41.66.54,1.43.37,2.18ZM115.32,149.98c.93.28,1.76.41,2.49.38.74-.03,1.43-.29,2.08-.76.64-.47,1.26-1.24,1.87-2.31l.86-1.53-5.43-28.81h6.81l2.95,21.42h.3l10.11-21.42h7.36l-16.57,31.72c-.8,1.52-1.73,2.82-2.78,3.9-1.06,1.07-2.27,1.89-3.62,2.46-1.36.56-2.9.85-4.62.85-.91,0-1.74-.07-2.48-.21-.74-.15-1.33-.31-1.76-.49l2.43-5.2ZM73.91,116.95h6.38l-.81,4.81h.33c.86-1.62,2.05-2.89,3.57-3.8,1.51-.92,3.22-1.37,5.13-1.37s3.42.46,4.6,1.39c1.17.93,1.89,2.19,2.16,3.78h.3c.88-1.58,2.15-2.84,3.8-3.77,1.66-.94,3.51-1.4,5.58-1.4,2.58,0,4.56.82,5.94,2.47,1.38,1.66,1.81,4.06,1.28,7.2l-3.17,19h-6.69l3.03-17.97c.25-1.77-.01-3.06-.81-3.87-.79-.81-1.86-1.21-3.21-1.21-1.61,0-2.95.49-4.02,1.49-1.07.99-1.73,2.3-1.97,3.91l-2.97,17.65h-6.54l3.06-18.24c.22-1.48-.04-2.65-.77-3.51-.73-.87-1.8-1.3-3.21-1.3-.96,0-1.88.24-2.75.73-.87.5-1.61,1.18-2.22,2.06s-1,1.89-1.19,3.05l-2.87,17.21h-6.67l4.71-28.31ZM141.74,215.25l-8.05-29.96-8.27,29.96h-37.36l-18.86-53.97h31.63l9.07,31.84,8.48-31.84h33.01l8.34,32.42c2.51-9.48,5.01-18.97,7.52-28.46.35-1.32.69-2.64,1.04-3.96.21-.81.42-1.63.63-2.44l27.74,6.25-17.99,50.16h-36.93ZM198.7,230.01h-3.65l-2.38,14.35h-4.15l2.4-14.35h-2.59l.53-3.2h2.59l.28-1.66c.18-1.18.58-2.16,1.21-2.94.62-.79,1.37-1.38,2.27-1.76.89-.39,1.85-.59,2.86-.59.72,0,1.34.06,1.88.17.54.12.93.22,1.17.31l-1.33,3.2c-.17-.05-.38-.11-.63-.16-.25-.06-.55-.09-.88-.09-.76,0-1.33.19-1.71.56-.38.36-.63.89-.76,1.58l-.23,1.38h3.66l-.54,3.2ZM211.07,230.31c-.37-.05-.73-.07-1.09-.07-.76,0-1.46.16-2.1.48-.65.33-1.19.78-1.63,1.35-.44.57-.72,1.23-.85,1.97l-1.71,10.32h-4.13l2.92-17.55h4.01l-.49,2.93h.18c.49-1.02,1.16-1.8,2.04-2.35.88-.55,1.83-.83,2.83-.83.24,0,.49.01.77.02.27.02.5.05.7.09l-.64,3.81c-.17-.06-.44-.12-.81-.17ZM216.48,244.36h-4.14l2.93-17.55h4.14l-2.93,17.55ZM219.69,223.63c-.5.45-1.08.67-1.75.67s-1.2-.23-1.64-.67c-.44-.45-.63-.98-.57-1.58.05-.63.33-1.16.84-1.59.5-.44,1.08-.65,1.74-.65s1.21.22,1.64.65c.43.44.62.97.58,1.6-.06.61-.34,1.13-.84,1.57ZM237.79,235.45l-.19,1.27h-12.24v.06c-.19,1.1-.15,2,.1,2.69.24.69.67,1.2,1.29,1.53.61.32,1.38.48,2.3.48.61,0,1.17-.08,1.69-.25.52-.18.98-.43,1.39-.76.41-.34.75-.75,1.02-1.25l3.78.43c-.42,1.03-1.03,1.91-1.84,2.67-.8.76-1.77,1.35-2.89,1.76-1.13.42-2.37.62-3.75.62-1.75,0-3.2-.36-4.35-1.1-1.16-.73-1.97-1.78-2.43-3.13-.46-1.35-.54-2.94-.23-4.78.3-1.81.9-3.39,1.82-4.76.91-1.37,2.05-2.43,3.43-3.2,1.37-.77,2.9-1.15,4.56-1.15,1.09,0,2.08.18,2.99.52.9.35,1.67.88,2.29,1.61.63.72,1.06,1.64,1.29,2.76.24,1.11.23,2.44-.03,3.98ZM257.12,233.19l-1.87,11.17h-4.14l1.75-10.53c.19-1.17.04-2.09-.44-2.75-.49-.67-1.27-1-2.35-1-.73,0-1.4.16-2.01.47-.61.32-1.12.77-1.53,1.37-.42.59-.7,1.31-.86,2.16l-1.69,10.28h-4.13l2.92-17.55h3.96l-.51,2.98h.21c.55-.98,1.33-1.76,2.32-2.34s2.14-.87,3.46-.87c1.2,0,2.2.26,3.02.78.82.52,1.4,1.27,1.74,2.25.34.98.39,2.17.15,3.58ZM275.32,244.36h-4.07l.47-2.76h-.26c-.28.42-.66.88-1.15,1.35-.49.48-1.09.88-1.8,1.22-.71.33-1.57.5-2.58.5-1.38,0-2.56-.35-3.53-1.06-.97-.71-1.66-1.74-2.08-3.09-.41-1.35-.45-2.98-.13-4.91.32-1.95.92-3.6,1.79-4.94.87-1.35,1.91-2.36,3.11-3.05,1.21-.69,2.49-1.04,3.84-1.04,1.03,0,1.84.18,2.45.52.6.35,1.06.76,1.37,1.25.31.48.54.94.68,1.36h.17l1.45-8.75h4.15l-3.88,23.4ZM280,215.25h-18.49c-.51-1.53-1.89-4.28-3.27-5.66-1.74,1.59-8.12,6.74-25.02,6.74h-1.89c-30.18,0-37.36-14.79-37.36-27.2v-2.17c0-13.71,8.27-26.77,41.49-26.77h2.33c38.22,0,41.85,13.56,41.85,21.4v.07h-28.14c-.37-1.38-2.18-5.15-14.15-5.15-10.73,0-15.01,4.57-15.01,11.1v.65c0,6.75,4.06,12.12,14.79,12.12s13.64-3.34,13.64-4.79h-14.58v-11.03h43.81v30.69ZM271.61,230.67c-.54-.46-1.27-.69-2.16-.69s-1.72.24-2.41.72c-.68.48-1.25,1.14-1.69,1.98-.44.85-.75,1.82-.93,2.91-.19,1.09-.2,2.07-.03,2.93.16.85.51,1.53,1.04,2.02.53.49,1.25.74,2.16.74s1.67-.24,2.37-.72c.71-.47,1.29-1.14,1.77-1.99.47-.85.8-1.85.98-2.98.19-1.14.19-2.13.01-2.96-.19-.84-.56-1.49-1.11-1.96ZM232.79,230.34c-.54-.36-1.2-.54-2-.54s-1.57.21-2.28.63c-.71.42-1.3.96-1.78,1.61-.44.6-.74,1.23-.87,1.89h8.21c.12-.79.08-1.5-.15-2.12-.22-.62-.6-1.11-1.13-1.47ZM180.2,125.67c3.17.77,6.79,1.97,8.4,5.07,1.05,2.03,1.25,4.45,1.07,6.69-.05.65.95.64,1,0,.2-2.47-.09-5.13-1.29-7.33-1.76-3.24-5.55-4.57-8.91-5.4-.63-.15-.9.81-.27.97ZM189.38,130.1c-1.76-3.24-5.55-4.57-8.91-5.4-.63-.15-.9.81-.27.97,3.17.77,6.79,1.97,8.4,5.07,1.05,2.03,1.25,4.45,1.07,6.69-.05.65.95.64,1,0,.2-2.47-.09-5.13-1.29-7.33ZM233.92,231.81c-.22-.62-.6-1.11-1.13-1.47-.54-.36-1.2-.54-2-.54s-1.57.21-2.28.63c-.71.42-1.3.96-1.78,1.61-.44.6-.74,1.23-.87,1.89h8.21c.12-.79.08-1.5-.15-2.12ZM233.92,231.81c-.22-.62-.6-1.11-1.13-1.47-.54-.36-1.2-.54-2-.54s-1.57.21-2.28.63c-.71.42-1.3.96-1.78,1.61-.44.6-.74,1.23-.87,1.89h8.21c.12-.79.08-1.5-.15-2.12ZM189.38,130.1c-1.76-3.24-5.55-4.57-8.91-5.4-.63-.15-.9.81-.27.97,3.17.77,6.79,1.97,8.4,5.07,1.05,2.03,1.25,4.45,1.07,6.69-.05.65.95.64,1,0,.2-2.47-.09-5.13-1.29-7.33ZM189.38,130.1c-1.76-3.24-5.55-4.57-8.91-5.4-.63-.15-.9.81-.27.97,3.17.77,6.79,1.97,8.4,5.07,1.05,2.03,1.25,4.45,1.07,6.69-.05.65.95.64,1,0,.2-2.47-.09-5.13-1.29-7.33ZM189.38,130.1c-1.76-3.24-5.55-4.57-8.91-5.4-.63-.15-.9.81-.27.97,3.17.77,6.79,1.97,8.4,5.07,1.05,2.03,1.25,4.45,1.07,6.69-.05.65.95.64,1,0,.2-2.47-.09-5.13-1.29-7.33ZM189.38,130.1c-1.76-3.24-5.55-4.57-8.91-5.4-.63-.15-.9.81-.27.97,3.17.77,6.79,1.97,8.4,5.07,1.05,2.03,1.25,4.45,1.07,6.69-.05.65.95.64,1,0,.2-2.47-.09-5.13-1.29-7.33ZM189.38,130.1c-1.76-3.24-5.55-4.57-8.91-5.4-.63-.15-.9.81-.27.97,3.17.77,6.79,1.97,8.4,5.07,1.05,2.03,1.25,4.45,1.07,6.69-.05.65.95.64,1,0,.2-2.47-.09-5.13-1.29-7.33ZM189.38,130.1c-1.76-3.24-5.55-4.57-8.91-5.4-.63-.15-.9.81-.27.97,3.17.77,6.79,1.97,8.4,5.07,1.05,2.03,1.25,4.45,1.07,6.69-.05.65.95.64,1,0,.2-2.47-.09-5.13-1.29-7.33ZM189.38,130.1c-1.76-3.24-5.55-4.57-8.91-5.4-.63-.15-.9.81-.27.97,3.17.77,6.79,1.97,8.4,5.07,1.05,2.03,1.25,4.45,1.07,6.69-.05.65.95.64,1,0,.2-2.47-.09-5.13-1.29-7.33Z"/>
      <g>
        <path class="cls-1" d="M190.67,137.43c-.05.64-1.05.65-1,0,.18-2.24-.02-4.66-1.07-6.69-1.61-3.1-5.23-4.3-8.4-5.07-.63-.16-.36-1.12.27-.97,3.36.83,7.15,2.16,8.91,5.4,1.2,2.2,1.49,4.86,1.29,7.33Z"/>
        <path class="cls-1" d="M190.67,137.43c-.05.64-1.05.65-1,0,.18-2.24-.02-4.66-1.07-6.69-1.61-3.1-5.23-4.3-8.4-5.07-.63-.16-.36-1.12.27-.97,3.36.83,7.15,2.16,8.91,5.4,1.2,2.2,1.49,4.86,1.29,7.33Z"/>
      </g>
    </g>
  </g>
</svg>